<mxfile host="app.diagrams.net" agent="Mozilla/5.0 (Windows NT 10.0; Win64; x64) AppleWebKit/537.36 (KHTML, like Gecko) Chrome/120.0.0.0 Safari/537.36" version="24.8.4">
  <diagram name="Página-1" id="GKXoOICRaqLs6bxmES5K">
    <mxGraphModel dx="1434" dy="746" grid="1" gridSize="10" guides="1" tooltips="1" connect="1" arrows="1" fold="1" page="1" pageScale="1" pageWidth="827" pageHeight="1169" math="0" shadow="0">
      <root>
        <mxCell id="0" />
        <mxCell id="1" parent="0" />
        <mxCell id="_bmpQhyxs5mGQkJciRoT-1" value="UC 03 - Gerenciar Usuário" style="ellipse;whiteSpace=wrap;html=1;" vertex="1" parent="1">
          <mxGeometry x="360" y="360" width="120" height="80" as="geometry" />
        </mxCell>
        <mxCell id="_bmpQhyxs5mGQkJciRoT-2" value="UC 02 - Transportar Passageiro" style="ellipse;whiteSpace=wrap;html=1;" vertex="1" parent="1">
          <mxGeometry x="360" y="200" width="120" height="80" as="geometry" />
        </mxCell>
        <mxCell id="_bmpQhyxs5mGQkJciRoT-3" value="UC 01 - Chamar elevador" style="ellipse;whiteSpace=wrap;html=1;" vertex="1" parent="1">
          <mxGeometry x="360" y="40" width="120" height="80" as="geometry" />
        </mxCell>
        <mxCell id="_bmpQhyxs5mGQkJciRoT-4" value="UC 05 - Registrar&lt;div&gt;Log de Atividade&lt;/div&gt;" style="ellipse;whiteSpace=wrap;html=1;" vertex="1" parent="1">
          <mxGeometry x="360" y="680" width="120" height="80" as="geometry" />
        </mxCell>
        <mxCell id="_bmpQhyxs5mGQkJciRoT-5" value="UC 04 - Configurar Sistema" style="ellipse;whiteSpace=wrap;html=1;" vertex="1" parent="1">
          <mxGeometry x="360" y="520" width="120" height="80" as="geometry" />
        </mxCell>
        <mxCell id="_bmpQhyxs5mGQkJciRoT-12" style="rounded=0;orthogonalLoop=1;jettySize=auto;html=1;exitX=1;exitY=0.3333333333333333;exitDx=0;exitDy=0;exitPerimeter=0;entryX=0;entryY=0.5;entryDx=0;entryDy=0;" edge="1" parent="1" source="_bmpQhyxs5mGQkJciRoT-6" target="_bmpQhyxs5mGQkJciRoT-3">
          <mxGeometry relative="1" as="geometry" />
        </mxCell>
        <mxCell id="_bmpQhyxs5mGQkJciRoT-13" style="rounded=0;orthogonalLoop=1;jettySize=auto;html=1;exitX=1;exitY=0.3333333333333333;exitDx=0;exitDy=0;exitPerimeter=0;entryX=0;entryY=0.5;entryDx=0;entryDy=0;" edge="1" parent="1" source="_bmpQhyxs5mGQkJciRoT-6" target="_bmpQhyxs5mGQkJciRoT-2">
          <mxGeometry relative="1" as="geometry" />
        </mxCell>
        <mxCell id="_bmpQhyxs5mGQkJciRoT-6" value="Usuário" style="shape=umlActor;verticalLabelPosition=bottom;verticalAlign=top;html=1;outlineConnect=0;direction=east;" vertex="1" parent="1">
          <mxGeometry x="140" y="150" width="30" height="60" as="geometry" />
        </mxCell>
        <mxCell id="_bmpQhyxs5mGQkJciRoT-7" value="UC 06 - Ativar modo Incêncio" style="ellipse;whiteSpace=wrap;html=1;" vertex="1" parent="1">
          <mxGeometry x="360" y="840" width="120" height="80" as="geometry" />
        </mxCell>
        <mxCell id="_bmpQhyxs5mGQkJciRoT-8" value="UC 07 - Controlar&lt;div&gt;carga máxima&lt;/div&gt;" style="ellipse;whiteSpace=wrap;html=1;" vertex="1" parent="1">
          <mxGeometry x="360" y="1000" width="120" height="80" as="geometry" />
        </mxCell>
        <mxCell id="_bmpQhyxs5mGQkJciRoT-9" value="UC 08 - Autenticar&lt;div&gt;Acesso VIP&lt;/div&gt;" style="ellipse;whiteSpace=wrap;html=1;" vertex="1" parent="1">
          <mxGeometry x="360" y="1160" width="120" height="80" as="geometry" />
        </mxCell>
        <mxCell id="_bmpQhyxs5mGQkJciRoT-16" style="rounded=0;orthogonalLoop=1;jettySize=auto;html=1;exitX=1;exitY=0.3333333333333333;exitDx=0;exitDy=0;exitPerimeter=0;entryX=0;entryY=0.5;entryDx=0;entryDy=0;" edge="1" parent="1" source="_bmpQhyxs5mGQkJciRoT-14" target="_bmpQhyxs5mGQkJciRoT-1">
          <mxGeometry relative="1" as="geometry" />
        </mxCell>
        <mxCell id="_bmpQhyxs5mGQkJciRoT-17" style="rounded=0;orthogonalLoop=1;jettySize=auto;html=1;exitX=1;exitY=0.3333333333333333;exitDx=0;exitDy=0;exitPerimeter=0;entryX=0;entryY=0.5;entryDx=0;entryDy=0;" edge="1" parent="1" source="_bmpQhyxs5mGQkJciRoT-14" target="_bmpQhyxs5mGQkJciRoT-5">
          <mxGeometry relative="1" as="geometry" />
        </mxCell>
        <mxCell id="_bmpQhyxs5mGQkJciRoT-14" value="Usuário&lt;div&gt;Master&lt;/div&gt;" style="shape=umlActor;verticalLabelPosition=bottom;verticalAlign=top;html=1;outlineConnect=0;" vertex="1" parent="1">
          <mxGeometry x="140" y="460" width="30" height="60" as="geometry" />
        </mxCell>
        <mxCell id="_bmpQhyxs5mGQkJciRoT-23" style="rounded=0;orthogonalLoop=1;jettySize=auto;html=1;exitX=0;exitY=0.3333333333333333;exitDx=0;exitDy=0;exitPerimeter=0;entryX=1;entryY=0.5;entryDx=0;entryDy=0;" edge="1" parent="1" source="_bmpQhyxs5mGQkJciRoT-18" target="_bmpQhyxs5mGQkJciRoT-7">
          <mxGeometry relative="1" as="geometry" />
        </mxCell>
        <mxCell id="_bmpQhyxs5mGQkJciRoT-18" value="Sistema de detecção de incêndio" style="shape=umlActor;verticalLabelPosition=bottom;verticalAlign=top;html=1;outlineConnect=0;" vertex="1" parent="1">
          <mxGeometry x="660" y="860" width="30" height="60" as="geometry" />
        </mxCell>
        <mxCell id="_bmpQhyxs5mGQkJciRoT-24" style="rounded=0;orthogonalLoop=1;jettySize=auto;html=1;exitX=0;exitY=0.3333333333333333;exitDx=0;exitDy=0;exitPerimeter=0;" edge="1" parent="1" source="_bmpQhyxs5mGQkJciRoT-22" target="_bmpQhyxs5mGQkJciRoT-8">
          <mxGeometry relative="1" as="geometry" />
        </mxCell>
        <mxCell id="_bmpQhyxs5mGQkJciRoT-22" value="Sistema de monitoramento de carga" style="shape=umlActor;verticalLabelPosition=bottom;verticalAlign=top;html=1;outlineConnect=0;" vertex="1" parent="1">
          <mxGeometry x="660" y="1020" width="30" height="60" as="geometry" />
        </mxCell>
        <mxCell id="_bmpQhyxs5mGQkJciRoT-26" style="rounded=0;orthogonalLoop=1;jettySize=auto;html=1;exitX=1;exitY=0.3333333333333333;exitDx=0;exitDy=0;exitPerimeter=0;entryX=0;entryY=0.5;entryDx=0;entryDy=0;" edge="1" parent="1" source="_bmpQhyxs5mGQkJciRoT-25" target="_bmpQhyxs5mGQkJciRoT-9">
          <mxGeometry relative="1" as="geometry" />
        </mxCell>
        <mxCell id="_bmpQhyxs5mGQkJciRoT-27" style="rounded=0;orthogonalLoop=1;jettySize=auto;html=1;exitX=1;exitY=0.3333333333333333;exitDx=0;exitDy=0;exitPerimeter=0;entryX=0;entryY=0.5;entryDx=0;entryDy=0;" edge="1" parent="1" source="_bmpQhyxs5mGQkJciRoT-25" target="_bmpQhyxs5mGQkJciRoT-3">
          <mxGeometry relative="1" as="geometry" />
        </mxCell>
        <mxCell id="_bmpQhyxs5mGQkJciRoT-28" style="rounded=0;orthogonalLoop=1;jettySize=auto;html=1;exitX=1;exitY=0.3333333333333333;exitDx=0;exitDy=0;exitPerimeter=0;entryX=0;entryY=0.5;entryDx=0;entryDy=0;" edge="1" parent="1" source="_bmpQhyxs5mGQkJciRoT-25" target="_bmpQhyxs5mGQkJciRoT-2">
          <mxGeometry relative="1" as="geometry" />
        </mxCell>
        <mxCell id="_bmpQhyxs5mGQkJciRoT-25" value="Usuário&lt;div&gt;VIP&lt;/div&gt;" style="shape=umlActor;verticalLabelPosition=bottom;verticalAlign=top;html=1;outlineConnect=0;direction=east;" vertex="1" parent="1">
          <mxGeometry x="140" y="870" width="30" height="60" as="geometry" />
        </mxCell>
      </root>
    </mxGraphModel>
  </diagram>
</mxfile>
